<svg width="1600" height="720" viewBox="0 0 1600 720" fill="none" xmlns="http://www.w3.org/2000/svg" role="img" aria-labelledby="title desc">
  <title id="title">Late night study illustration</title>
  <desc id="desc">A warm HD 2D night scene of a person typing on a laptop with a moonlit window and city lights.</desc>
  <style>
    .star {
      animation: star-blink 2.8s ease-in-out infinite;
    }

    .star-b {
      animation-delay: -1.4s;
    }

    .cursor {
      animation: cursor-blink 0.9s steps(2, end) infinite;
    }

    .hand-left {
      animation: typing-left 0.42s ease-in-out infinite;
      transform-box: fill-box;
      transform-origin: center;
    }

    .hand-right {
      animation: typing-right 0.42s ease-in-out infinite;
      transform-box: fill-box;
      transform-origin: center;
    }

    .screen-line {
      stroke-dasharray: 22 18;
      animation: trace-flow 3s linear infinite;
    }

    .mug-steam {
      animation: steam-rise 3.4s ease-in-out infinite;
      opacity: 0;
    }

    .mug-steam-b {
      animation-delay: -1.5s;
    }

    .window-light {
      animation: light-twinkle 4.5s ease-in-out infinite;
    }

    .window-light:nth-child(3n) {
      animation-delay: -1.8s;
    }

    .window-light:nth-child(4n) {
      animation-delay: -3s;
    }

    @keyframes star-blink {
      0%, 100% { opacity: 0.38; transform: scale(0.95); }
      50% { opacity: 1; transform: scale(1.08); }
    }

    @keyframes cursor-blink {
      0%, 48% { opacity: 1; }
      49%, 100% { opacity: 0; }
    }

    @keyframes typing-left {
      0%, 100% { transform: translateY(0); }
      50% { transform: translateY(7px); }
    }

    @keyframes typing-right {
      0%, 100% { transform: translateY(7px); }
      50% { transform: translateY(0); }
    }

    @keyframes trace-flow {
      to { stroke-dashoffset: -80; }
    }

    @keyframes steam-rise {
      0% { opacity: 0; transform: translateY(18px); }
      28% { opacity: 0.7; }
      100% { opacity: 0; transform: translateY(-22px); }
    }

    @keyframes light-twinkle {
      0%, 100% { opacity: 0.34; }
      50% { opacity: 0.86; }
    }

    @media (prefers-reduced-motion: reduce) {
      .star,
      .cursor,
      .hand-left,
      .hand-right,
      .screen-line,
      .mug-steam,
      .window-light {
        animation: none;
      }
    }
  </style>

  <defs>
    <linearGradient id="nightRoom" x1="800" y1="0" x2="800" y2="720" gradientUnits="userSpaceOnUse">
      <stop stop-color="#182832"/>
      <stop offset="0.58" stop-color="#22343A"/>
      <stop offset="1" stop-color="#3E342A"/>
    </linearGradient>
    <linearGradient id="windowSky" x1="800" y1="116" x2="800" y2="494" gradientUnits="userSpaceOnUse">
      <stop stop-color="#0D1823"/>
      <stop offset="1" stop-color="#20333F"/>
    </linearGradient>
    <linearGradient id="desk" x1="334" y1="552" x2="1284" y2="646" gradientUnits="userSpaceOnUse">
      <stop stop-color="#9D6530"/>
      <stop offset="1" stop-color="#6F471F"/>
    </linearGradient>
    <radialGradient id="screenGlow" cx="0" cy="0" r="1" gradientUnits="userSpaceOnUse" gradientTransform="translate(905 456) rotate(90) scale(210 390)">
      <stop stop-color="#6CD7C8" stop-opacity="0.45"/>
      <stop offset="0.56" stop-color="#0F766E" stop-opacity="0.16"/>
      <stop offset="1" stop-color="#0F766E" stop-opacity="0"/>
    </radialGradient>
    <filter id="softShadow" x="-20%" y="-20%" width="140%" height="150%" color-interpolation-filters="sRGB">
      <feDropShadow dx="0" dy="18" stdDeviation="22" flood-color="#071E1E" flood-opacity="0.26"/>
    </filter>
  </defs>

  <rect width="1600" height="720" rx="34" fill="url(#nightRoom)"/>
  <ellipse cx="905" cy="456" rx="390" ry="210" fill="url(#screenGlow)"/>

  <g filter="url(#softShadow)">
    <rect x="416" y="92" width="768" height="404" rx="30" fill="#101B22"/>
    <rect x="448" y="122" width="704" height="344" rx="18" fill="url(#windowSky)"/>
    <path d="M800 122V466M448 296H1152" stroke="#314852" stroke-width="12" stroke-linecap="round"/>
    <circle cx="1038" cy="180" r="48" fill="#E5BD65"/>
    <circle cx="1058" cy="164" r="46" fill="#20333F"/>
    <circle class="star" cx="558" cy="176" r="5" fill="#FFFDF7"/>
    <circle class="star star-b" cx="644" cy="226" r="4" fill="#E5BD65"/>
    <circle class="star" cx="924" cy="206" r="4" fill="#FFFDF7"/>
    <circle class="star star-b" cx="1110" cy="262" r="5" fill="#FFFDF7"/>
    <circle class="star" cx="736" cy="166" r="3" fill="#E5BD65"/>

    <g transform="translate(494 330)">
      <rect x="0" y="76" width="74" height="60" rx="8" fill="#182832"/>
      <rect x="104" y="28" width="80" height="108" rx="8" fill="#15242D"/>
      <rect x="220" y="52" width="96" height="84" rx="8" fill="#162831"/>
      <rect x="360" y="2" width="82" height="134" rx="8" fill="#13202A"/>
      <rect x="482" y="42" width="110" height="94" rx="8" fill="#172A33"/>
      <rect class="window-light" x="18" y="94" width="12" height="12" rx="2" fill="#E5BD65"/>
      <rect class="window-light" x="42" y="112" width="12" height="12" rx="2" fill="#DCEBE6"/>
      <rect class="window-light" x="126" y="50" width="12" height="12" rx="2" fill="#E5BD65"/>
      <rect class="window-light" x="154" y="86" width="12" height="12" rx="2" fill="#DCEBE6"/>
      <rect class="window-light" x="244" y="74" width="12" height="12" rx="2" fill="#E5BD65"/>
      <rect class="window-light" x="282" y="104" width="12" height="12" rx="2" fill="#DCEBE6"/>
      <rect class="window-light" x="386" y="26" width="12" height="12" rx="2" fill="#E5BD65"/>
      <rect class="window-light" x="412" y="74" width="12" height="12" rx="2" fill="#DCEBE6"/>
      <rect class="window-light" x="512" y="64" width="12" height="12" rx="2" fill="#E5BD65"/>
      <rect class="window-light" x="558" y="104" width="12" height="12" rx="2" fill="#DCEBE6"/>
    </g>
  </g>

  <rect x="288" y="548" width="1024" height="86" rx="28" fill="url(#desk)" filter="url(#softShadow)"/>
  <path d="M342 634H1260L1228 700H374L342 634Z" fill="#5F3D1D"/>

  <g filter="url(#softShadow)">
    <ellipse cx="770" cy="622" rx="178" ry="26" fill="#071E1E" opacity="0.24"/>
    <path d="M678 496C694 456 727 433 769 429C806 426 838 445 862 486C836 523 815 553 799 578H702C696 548 687 521 678 496Z" fill="#0F766E"/>
    <path d="M860 486C897 502 930 525 960 556" stroke="#C78A45" stroke-width="18" stroke-linecap="round"/>
    <path class="hand-right" d="M950 556C975 562 1002 565 1032 565" stroke="#C78A45" stroke-width="16" stroke-linecap="round"/>
    <path d="M722 495C756 516 797 528 846 529" stroke="#0B5F59" stroke-width="9" stroke-linecap="round" opacity="0.58"/>
    <path d="M707 578C694 609 679 638 662 666" stroke="#20231F" stroke-width="22" stroke-linecap="round"/>
    <path d="M792 578C817 607 846 632 878 654" stroke="#20231F" stroke-width="22" stroke-linecap="round"/>
    <path d="M643 668H686" stroke="#6F471F" stroke-width="15" stroke-linecap="round"/>
    <path d="M873 656H918" stroke="#6F471F" stroke-width="15" stroke-linecap="round"/>
    <path d="M760 426C760 443 770 456 787 465" stroke="#C78A45" stroke-width="16" stroke-linecap="round"/>
    <circle cx="758" cy="384" r="42" fill="#C78A45"/>
    <path d="M782 383L812 393L783 403Z" fill="#C78A45"/>
    <path d="M720 378C725 343 751 327 782 335C807 341 823 360 826 386C799 389 772 381 746 361C742 380 732 395 715 405C711 394 713 386 720 378Z" fill="#20231F"/>
    <circle cx="781" cy="381" r="4.5" fill="#20231F"/>
    <path d="M701 500C671 520 653 547 646 581" stroke="#C78A45" stroke-width="18" stroke-linecap="round"/>
    <path class="hand-left" d="M646 581C675 574 704 571 735 572" stroke="#C78A45" stroke-width="16" stroke-linecap="round"/>
  </g>

  <rect x="288" y="584" width="1024" height="50" rx="22" fill="url(#desk)"/>
  <path d="M342 634H1260L1228 700H374L342 634Z" fill="#5F3D1D"/>
  <path d="M356 594H1242" stroke="#E8C98F" stroke-width="8" stroke-linecap="round" opacity="0.22"/>

  <g filter="url(#softShadow)">
    <path d="M946 356L1198 314C1215 311 1229 324 1229 342V552C1229 570 1215 583 1198 580L946 538C932 536 922 524 922 510V384C922 370 932 358 946 356Z" fill="#20231F"/>
    <path d="M964 382L1195 346V548L964 512V382Z" fill="#071E1E"/>
    <path class="screen-line" d="M996 464C1030 418 1060 429 1088 462C1114 492 1139 473 1168 424" stroke="#6CD7C8" stroke-width="8" stroke-linecap="round"/>
    <path d="M994 414L1068 402" stroke="#DCEBE6" stroke-width="10" stroke-linecap="round" opacity="0.8"/>
    <path d="M994 438L1048 430" stroke="#DCEBE6" stroke-width="7" stroke-linecap="round" opacity="0.48"/>
    <path d="M1128 494L1180 502" stroke="#E5BD65" stroke-width="8" stroke-linecap="round" opacity="0.86"/>
    <rect class="cursor" x="1181" y="489" width="7" height="27" rx="3.5" fill="#E5BD65"/>
    <path d="M798 570H1074L1168 604H732L798 570Z" fill="#2C302C"/>
    <path d="M850 581H1048" stroke="#61685F" stroke-width="11" stroke-linecap="round"/>
    <path d="M1048 581L1124 598" stroke="#61685F" stroke-width="9" stroke-linecap="round" opacity="0.65"/>
  </g>

  <g filter="url(#softShadow)">
    <path d="M466 522H536V580C536 600 520 616 500 616C481 616 466 600 466 580V522Z" fill="#FFFDF7"/>
    <path d="M536 542H558C578 542 578 584 536 584" stroke="#D8CEC0" stroke-width="14" stroke-linecap="round"/>
    <path class="mug-steam" d="M486 500C468 476 498 460 480 438" stroke="#DCEBE6" stroke-width="7" stroke-linecap="round"/>
    <path class="mug-steam mug-steam-b" d="M515 502C497 478 528 462 510 440" stroke="#DCEBE6" stroke-width="7" stroke-linecap="round"/>
  </g>

  <rect x="0" y="0" width="1600" height="720" rx="34" stroke="#FFFDF7" stroke-opacity="0.22" stroke-width="2"/>
</svg>
